# xmcd
#
# Track frame offsets:
#	150
#	13485
#	26105
#	44408
#	60845
#	75618
#	92065
#	108325
#	126890
#	136993
#	156865
#	169733
#
# Disc length: 2490 seconds
#
# Revision: 0
# Processed by: cddbd v1.4PL0 Copyright (c) Steve Scherf et al.
# Submitted via: EasyCDDAExtractor 5.0.5.1
#
DISCID=9909b80c
DTITLE=George Strait - Honkyonkville
DYEAR=2003
DGENRE=Country
TTITLE0=She Use To Say That To Me
TTITLE1=Honkytonkville
TTITLE2=Look Who's Back From Town
TTITLE3=Cowboys Like Us
TTITLE4=Tell Me Something Bad About Tulsa
TTITLE5=As Far As It Goes
TTITLE6=I Found Jesus On The Jailhouse Floor
TTITLE7=Desperately
TTITLE8=Honk If You Honky Tonk
TTITLE9=Heaven Is Missing An Angel
TTITLE10=Four Down And Twelve Across
TTITLE11=My Infinite Love
EXTD=
EXTT0=
EXTT1=
EXTT2=
EXTT3=
EXTT4=
EXTT5=
EXTT6=
EXTT7=
EXTT8=
EXTT9=
EXTT10=
EXTT11=
PLAYORDER=
